<svg viewBox="0 0 18 18" xmlns="http://www.w3.org/2000/svg" xmlns:xlink="http://www.w3.org/1999/xlink" width="18.000000" height="18.000000" fill="none" customFrame="#000000">
	<g id="Telegram">
		<path id="Background" d="M9 18C13.9706 18 18 13.9706 18 9C18 4.02944 13.9706 0 9 0C4.02944 0 0 4.02944 0 9C0 13.9706 4.02944 18 9 18Z" fill="rgb(255,255,255)" fill-rule="evenodd" />
		<path id="Telegram" d="M4.12879 8.84493C6.74591 7.70465 8.49093 6.95283 9.36386 6.58949C11.8571 5.55302 12.3778 5.37302 12.7127 5.36632C12.8369 5.36391 12.9587 5.40051 13.061 5.47097C13.1328 5.53286 13.1785 5.61958 13.1891 5.71377C13.2071 5.8309 13.2122 5.94966 13.2041 6.0679C13.0694 7.49116 12.4841 10.9313 12.1869 12.5211C12.0613 13.1909 11.8135 13.4194 11.5733 13.442C11.0525 13.4898 10.6523 13.0971 10.15 12.7664C9.35967 12.2482 8.91344 11.9292 8.14656 11.4202C7.25995 10.8341 7.83511 10.5152 8.33995 9.99107C8.47223 9.85376 10.7679 7.76409 10.8131 7.57488C10.819 7.54694 10.8183 7.51799 10.8111 7.49036C10.8038 7.46274 10.7902 7.4372 10.7712 7.41581C10.7437 7.39864 10.7126 7.3881 10.6804 7.38505C10.6481 7.382 10.6156 7.38651 10.5853 7.39823C10.5066 7.41553 9.2447 8.24967 6.79949 9.90065C6.44116 10.1468 6.11661 10.2668 5.82581 10.2606C5.50516 10.2531 4.88897 10.079 4.43018 9.92576C3.86842 9.74325 3.42554 9.64697 3.4607 9.33972C3.48135 9.17897 3.70405 9.01404 4.12879 8.84493Z" fill="rgb(17,17,17)" fill-rule="evenodd" />
	</g>
</svg>
