<svg viewBox="0 0 74.0005 80" xmlns="http://www.w3.org/2000/svg" xmlns:xlink="http://www.w3.org/1999/xlink" width="74.000488" height="80.000000" fill="none" customFrame="#000000">
	<path id="Union" d="M0 1.48649C0 0.665523 0.665523 0 1.48649 0L11.0056 0C11.7171 0 12.3287 0.504066 12.4647 1.20237L15.5479 17.036L72.514 17.036C73.335 17.036 74.0005 17.7015 74.0005 18.5225L74.0005 29.6329L74.0005 40.0026L74.0005 50.3723C74.0005 51.1933 73.335 51.8588 72.514 51.8588L20.5248 51.8588L12.4921 51.8588L12.4921 64.4404L72.514 64.4404C73.335 64.4404 74.0005 65.1059 74.0005 65.9269C74.0005 66.7478 73.335 67.4134 72.514 67.4134L62.3712 67.4134C63.663 68.7489 64.4593 70.5769 64.4593 72.593C64.4593 76.6838 61.181 80 57.1369 80C53.0928 80 49.8145 76.6838 49.8145 72.593C49.8145 70.5769 50.6108 68.7489 51.9026 67.4134L33.0809 67.4134C34.3728 68.7489 35.1691 70.5769 35.1691 72.593C35.1691 76.6838 31.8907 80 27.8466 80C23.8026 80 20.5242 76.6838 20.5242 72.593C20.5242 70.5769 21.3205 68.7489 22.6124 67.4134L11.0056 67.4134C10.1847 67.4134 9.51916 66.7478 9.51916 65.9269L9.51916 50.3723C9.51916 49.5513 10.1847 48.8858 11.0056 48.8858L18.7209 48.8858L17.0465 40.2867L15.0273 29.917L12.8638 18.8066L9.78069 2.97297L1.48649 2.97297C0.665523 2.97297 0 2.30745 0 1.48649ZM21.7498 48.8858L71.0275 48.8858L71.0275 41.4891L20.3094 41.4891L21.7498 48.8858ZM19.7305 38.5161L71.0275 38.5161L71.0275 31.1194L18.2902 31.1194L19.7305 38.5161ZM17.7113 28.1464L71.0275 28.1464L71.0275 20.0089L16.1268 20.0089L17.7113 28.1464ZM27.8466 77.027C30.2167 77.027 32.1961 75.0741 32.1961 72.593C32.1961 70.112 30.2167 68.1591 27.8466 68.1591C25.4766 68.1591 23.4972 70.112 23.4972 72.593C23.4972 75.0741 25.4766 77.027 27.8466 77.027ZM61.4864 72.593C61.4864 75.0741 59.507 77.027 57.1369 77.027C54.7668 77.027 52.7874 75.0741 52.7874 72.593C52.7874 70.112 54.7668 68.1591 57.1369 68.1591C59.507 68.1591 61.4864 70.112 61.4864 72.593Z" fill="rgb(197,53,140)" fill-rule="evenodd" />
</svg>
