<svg viewBox="0 0 77 79" xmlns="http://www.w3.org/2000/svg" xmlns:xlink="http://www.w3.org/1999/xlink" width="77.000000" height="79.000000" fill="none" customFrame="#000000">
	<path id="Vector 52" d="M1.5 35.9098L1.5 77.5L59.0761 77.5L59.0761 45.8411L42.8367 35.9098L41.5449 35.9098L1.5 35.9098ZM59.0761 45.8411L75.5 37.3086L75.5 8.86687C75.5 8.86687 73.1304 7.19293 71.8538 5.6047C70.6216 4.07176 69.4102 1.5 69.4102 1.5L48.788 1.5C48.788 1.5 48.1618 4.06592 46.9629 5.6047C45.7103 7.21236 42.8367 8.86687 42.8367 8.86687L42.8367 35.9098M54.4626 22.5748L57.7843 25.5589L64.9813 19.4975M21.1534 43.9295L21.1534 55.1196L9.89651 55.1196L9.89651 43.9295L21.1534 43.9295ZM14.6945 64.0718L14.6945 68.5479L8.78928 68.5479L8.78928 64.0718L14.6945 64.0718ZM51.7868 64.0718L51.7868 68.5479L45.8815 68.5479L45.8815 64.0718L51.7868 64.0718ZM39.4227 64.0718L39.4227 68.5479L33.5175 68.5479L33.5175 64.0718L39.4227 64.0718ZM27.0586 64.0718L27.0586 68.5479L21.1534 68.5479L21.1534 64.0718L27.0586 64.0718Z" fill-rule="evenodd" stroke="rgb(197,53,140)" stroke-linecap="round" stroke-linejoin="round" stroke-width="3" />
</svg>
