<svg width="24.000000" height="24.000000" viewBox="0 0 24 24" fill="none" xmlns="http://www.w3.org/2000/svg" xmlns:xlink="http://www.w3.org/1999/xlink">
	<desc>
			Created with Pixso.
	</desc>
	<defs/>
	<path id="Vector" d="M5.38 5.22C5.55 5.49 5.84 5.64 6.13 5.64C6.29 5.64 6.45 5.59 6.59 5.5C7.01 5.25 7.13 4.71 6.88 4.3C6.69 3.99 6.78 3.56 6.96 2.88C7.14 2.16 7.38 1.25 6.89 0.42C6.64 0.01 6.1 -0.13 5.68 0.12C5.27 0.36 5.13 0.9 5.38 1.32C5.5 1.52 5.37 1.99 5.25 2.44C5.04 3.25 4.78 4.25 5.38 5.22Z" fill="#A0A0A0" fill-opacity="1.000000" fill-rule="nonzero"/>
	<path id="Vector" d="M8.2 5.22C8.36 5.49 8.65 5.64 8.94 5.64C9.1 5.64 9.26 5.59 9.41 5.5C9.82 5.25 9.95 4.71 9.69 4.3C9.5 3.99 9.59 3.56 9.77 2.88C9.96 2.16 10.19 1.25 9.7 0.42C9.45 0.01 8.91 -0.13 8.5 0.12C8.08 0.36 7.94 0.9 8.19 1.32C8.31 1.52 8.18 1.99 8.07 2.44C7.86 3.25 7.6 4.25 8.2 5.22Z" fill="#A0A0A0" fill-opacity="1.000000" fill-rule="nonzero"/>
	<path id="Vector" d="M0.89 14.96L1.69 20.16C1.69 20.19 1.69 20.22 1.69 20.25C1.69 21.24 2.43 22.07 3.38 22.23L2.77 14.96L0.89 14.96Z" fill="#A0A0A0" fill-opacity="1.000000" fill-rule="nonzero"/>
	<path id="Vector" d="M4.56 22.26L6.95 22.26L6.95 21.86C6.71 21.44 6.51 21 6.35 20.52C6.15 19.9 6.26 19.22 6.64 18.69C6.74 18.57 6.84 18.46 6.95 18.36L6.95 14.96L3.95 14.96L4.56 22.26Z" fill="#A0A0A0" fill-opacity="1.000000" fill-rule="nonzero"/>
	<path id="Vector" d="M8.3 17.85L10.89 17.85L11.13 14.96L8.12 14.96L8.12 17.86C8.18 17.85 8.24 17.85 8.3 17.85Z" fill="#A0A0A0" fill-opacity="1.000000" fill-rule="nonzero"/>
	<path id="Vector" d="M12.06 17.85L13.75 17.85L14.19 14.96L12.31 14.96L12.06 17.85Z" fill="#A0A0A0" fill-opacity="1.000000" fill-rule="nonzero"/>
	<path id="Vector" d="M14.88 10.43L15.07 9.18C15.12 8.86 15.03 8.54 14.82 8.3C14.6 8.05 14.3 7.91 13.97 7.91L12.9 7.91L12.69 10.4L14.59 10.4C14.69 10.4 14.78 10.41 14.88 10.43Z" fill="#A0A0A0" fill-opacity="1.000000" fill-rule="nonzero"/>
	<path id="Vector" d="M0.48 10.4L2.39 10.4L2.18 7.91L1.1 7.91C0.78 7.91 0.47 8.05 0.26 8.3C0.05 8.54 -0.04 8.86 0.01 9.18L0.2 10.43C0.29 10.41 0.38 10.4 0.48 10.4Z" fill="#A0A0A0" fill-opacity="1.000000" fill-rule="nonzero"/>
	<path id="Vector" d="M6.95 10.4L6.95 7.91L3.36 7.91L3.57 10.4L6.95 10.4Z" fill="#A0A0A0" fill-opacity="1.000000" fill-rule="nonzero"/>
	<path id="Vector" d="M8.12 10.4L11.51 10.4L11.72 7.91L8.12 7.91L8.12 10.4Z" fill="#A0A0A0" fill-opacity="1.000000" fill-rule="nonzero"/>
	<path id="Vector" d="M23.83 7.29C23.55 6.9 23 6.8 22.61 7.08C22.43 7.21 18.24 10.25 16.71 18.96L8.38 18.96C8.1 18.96 7.84 19.09 7.67 19.32C7.51 19.55 7.46 19.84 7.55 20.1C8.3 22.43 10.46 24 12.92 24C15.37 24 17.52 22.44 18.29 20.12C18.31 20.07 18.32 20.01 18.33 19.95C18.54 18.57 18.82 17.34 19.14 16.25C19.85 13.85 20.74 12.14 21.47 11.01C21.62 10.79 21.76 10.59 21.89 10.4C22.85 9.08 23.62 8.51 23.62 8.51C24.02 8.23 24.11 7.68 23.83 7.29Z" fill="#A0A0A0" fill-opacity="1.000000" fill-rule="nonzero"/>
	<path id="Vector" d="M14.12 14.27C14.44 14.27 14.7 14.04 14.74 13.73L14.99 11.77C15.04 11.39 14.75 11.06 14.37 11.06L0.71 11.06C0.33 11.06 0.04 11.39 0.08 11.77L0.34 13.73C0.38 14.04 0.64 14.27 0.96 14.27L14.12 14.27Z" fill="#A0A0A0" fill-opacity="1.000000" fill-rule="nonzero"/>
</svg>
