<svg width="26.250000" height="26.250000" viewBox="0 0 26.25 26.25" fill="none" xmlns="http://www.w3.org/2000/svg" xmlns:xlink="http://www.w3.org/1999/xlink">
	<desc>
			Created with Pixso.
	</desc>
	<defs/>
	<path id="Vector" d="M26.25 19.54L25.96 19.37C25.94 19.36 23.75 18.06 23.21 16.49L23.09 16.14L22.86 16.43C22.86 16.44 22.54 16.82 21.68 17.27C21.03 13.61 18.84 9.24 15.97 7.37C16.79 7.44 17.61 7.37 18.41 7.08C18.89 6.91 18.68 6.13 18.2 6.3C17.55 6.54 16.89 6.6 16.24 6.57C17.84 5.1 19.1 2.85 19.1 1.21C19.1 0.81 19.1 0.07 18.51 0.07C18.28 0.07 18.09 0.22 17.82 0.42C17.42 0.74 16.81 1.21 15.92 1.21C15.58 1.21 14.95 0.85 14.45 0.56C13.85 0.21 13.46 0 13.13 0C12.59 0 11.8 0.43 11.1 0.82C10.82 0.97 10.43 1.19 10.35 1.21C9.34 1.21 8.75 0.74 8.36 0.43C8.13 0.25 7.96 0.12 7.74 0.12C7.17 0.12 7.17 0.81 7.17 1.61C7.17 3.16 8.35 5.2 9.89 6.57C8.92 6.64 7.96 6.93 7.28 7.58C6.91 7.94 7.48 8.51 7.85 8.16C8.41 7.61 9.14 7.38 9.92 7.34C9.95 7.42 9.97 7.49 10.01 7.57C6.72 9.93 4.38 15.55 4.38 19.33C4.38 19.71 4.41 20.05 4.46 20.36C3.61 19.99 3.3 19.66 3.29 19.65L3.07 19.39L2.96 19.72C2.47 21.16 0.33 22.42 0.31 22.43L0 22.61L0.31 22.78C0.42 22.84 0.54 22.9 0.65 22.95L0.45 23.09L0.55 24.42L8.89 26.25L12.05 24.22C12.37 24.23 12.69 24.23 13.02 24.23L16.71 26.25L25.06 23.62L25.06 22.22L24.84 22.08C24.95 22.01 25.06 21.94 25.17 21.87L25.47 21.67L25.4 21.64L25.77 21.54L25.84 20.08L25.62 19.93C25.74 19.86 25.85 19.79 25.97 19.72L26.25 19.54ZM7.96 1.61C7.96 1.42 7.97 1.26 7.97 1.15C8.04 1.2 8.11 1.26 8.2 1.32C8.45 1.93 8.94 2.81 9.75 3.36C10.75 4.03 10.62 3.26 11.15 2.55C11.68 1.85 12.03 1.48 12.92 3.29C13.31 4.09 13.96 1.87 14.57 1.55C14.73 1.64 14.89 1.72 15.05 1.79C16.15 3.58 16.66 3.02 17.64 1.53C17.91 1.37 18.13 1.21 18.3 1.07C18.3 1.11 18.3 1.16 18.3 1.21C18.3 2.61 17.16 4.63 15.75 5.94C15.69 5.77 15.59 5.61 15.47 5.48C14.9 4.84 14.02 5.55 13.6 6.02C12.85 5.78 11.63 5.12 10.84 5.49C10.65 5.59 10.46 5.71 10.31 5.86C9.01 4.68 7.96 2.97 7.96 1.61ZM15.05 6.41C14.86 6.37 14.66 6.32 14.47 6.27C14.71 6.06 14.94 5.99 15.03 6.3C15.04 6.33 15.05 6.37 15.05 6.41ZM11.73 6.68C11.58 6.66 11.43 6.63 11.28 6.61C11.16 6.54 11.05 6.46 10.94 6.38C11.34 6.11 12.03 6.26 12.69 6.48C12.36 6.51 12.04 6.58 11.73 6.68ZM11.93 7.84C11.68 7.9 11.41 7.87 11.18 7.78C11.28 7.73 11.37 7.69 11.47 7.65C11.62 7.72 11.77 7.78 11.93 7.84ZM3.83 23.79C2.79 23.48 1.78 23.08 0.81 22.59C1.4 22.2 2.7 21.26 3.22 20.12C3.58 20.41 4.41 20.92 6.04 21.32C6.01 21.36 5.97 21.41 5.94 21.46C4.56 21.09 3.77 20.64 3.76 20.63L3.57 20.52L3.48 20.72C3.36 20.99 3.07 21.03 2.92 21.03C2.87 21.03 2.84 21.02 2.84 21.02L2.68 21L2.63 21.15C2.51 21.46 2.03 21.86 1.86 21.98L1.57 22.2L1.9 22.33C2.02 22.39 2.06 22.43 2.06 22.44C2.06 22.47 2.01 22.55 1.95 22.6L1.7 22.81L2 22.94C2.6 23.22 3.29 23.45 3.98 23.65C3.92 23.7 3.88 23.75 3.83 23.79ZM7.36 22.16C7.97 22.24 8.65 22.3 9.39 22.3L9.39 22.3C9.55 22.3 9.7 22.29 9.86 22.29C9.87 22.32 9.89 22.35 9.91 22.38C9.95 22.44 10 22.49 10.06 22.53L8.95 23.48C8.93 23.48 8.91 23.48 8.88 23.48C8.39 23.48 8.02 23.66 7.84 23.99C7.16 23.9 6.49 23.79 5.82 23.66C6.36 23.18 6.87 22.68 7.36 22.16ZM2.4 22.68C2.44 22.6 2.47 22.5 2.45 22.39C2.44 22.29 2.39 22.2 2.32 22.13C2.52 21.96 2.79 21.7 2.93 21.43C3.27 21.43 3.55 21.3 3.73 21.07C4.02 21.23 4.69 21.54 5.68 21.81C5.27 22.32 4.73 22.89 4.31 23.32C3.65 23.14 2.99 22.93 2.4 22.68ZM8.63 24.52L8.54 24.52C8.16 24.52 6.92 24.49 5.27 24.15C5.33 24.1 5.39 24.05 5.44 24C6.78 24.28 7.86 24.4 7.94 24.41L8.1 24.43L8.15 24.27C8.26 23.93 8.65 23.89 8.88 23.89C8.95 23.89 8.99 23.89 8.99 23.89L9.08 23.9L11.02 22.24L10.5 22.23C10.32 22.22 10.25 22.18 10.23 22.15L10.34 21.87L10.04 21.88C9.82 21.89 9.6 21.89 9.39 21.89L9.39 21.89C8.78 21.89 8.21 21.85 7.69 21.79L7.81 21.65C8.87 21.79 10.13 21.87 11.66 21.86C11.3 22.37 10.39 23.46 8.63 24.52ZM13.02 22.62L13.02 23.42C12.77 23.42 12.53 23.42 12.29 23.42L12.22 22.52L11.62 22.57C12.02 22.09 12.19 21.78 12.21 21.75L12.37 21.45L12.03 21.45C8.79 21.51 6.67 21.13 5.33 20.7C5.23 20.3 5.18 19.86 5.18 19.33C5.18 15.78 7.45 10.41 10.46 8.23C11 8.75 11.81 8.97 12.58 8.47C12.75 8.36 12.89 8.22 13.03 8.06C13.07 8.06 13.1 8.07 13.13 8.07C13.24 8.07 13.35 8.06 13.47 8.05C13.61 8.11 13.75 8.16 13.87 8.22C14.49 8.49 15.01 8.32 15.37 7.95C18.13 9.62 20.35 14.04 20.93 17.61C19.66 18.12 17.66 18.61 14.59 18.7C15.19 18.35 15.65 17.77 15.49 17C15.31 16.19 14.64 15.97 13.94 15.93C13.93 15.55 13.93 15.17 13.94 14.79C14.15 14.88 14.36 14.99 14.55 15.11C14.88 15.32 15.18 14.78 14.85 14.57C14.56 14.39 14.26 14.25 13.94 14.14C13.95 13.69 13.95 13.26 13.95 12.82C13.95 12.41 13.35 12.41 13.35 12.82C13.35 13.2 13.35 13.59 13.34 13.97C13.03 13.92 12.7 13.91 12.38 13.96C12.33 13.67 12.27 13.38 12.19 13.1C12.09 12.71 11.52 12.87 11.62 13.26C11.69 13.54 11.75 13.82 11.8 14.1C11.77 14.11 11.75 14.12 11.72 14.13C10.91 14.45 10.42 15.27 11.01 16.03C11.28 16.38 11.65 16.53 12.04 16.57C12.06 17.1 12.08 17.63 12.09 18.15C11.83 17.98 11.58 17.76 11.37 17.53C11.1 17.24 10.67 17.68 10.94 17.97C11.31 18.36 11.7 18.65 12.11 18.84C12.13 19.29 12.16 19.74 12.2 20.19C12.24 20.59 12.84 20.59 12.8 20.19C12.76 19.8 12.74 19.42 12.72 19.03C12.95 19.07 13.19 19.08 13.44 19.05C13.47 19.47 13.5 19.88 13.55 20.29C13.58 20.53 13.8 20.62 13.97 20.58L13.93 21.44C13.67 21.46 13.4 21.48 13.12 21.5L12.79 21.52L12.96 21.81C12.98 21.84 13.18 22.16 13.63 22.62L13.02 22.62L13.02 22.62ZM23.91 19.74C23.36 20 22.66 20.24 21.95 20.44C21.52 19.99 20.96 19.39 20.54 18.86C21.47 18.58 21.99 18.29 22.22 18.13C22.41 18.3 22.65 18.38 22.94 18.38C23.04 18.38 23.12 18.37 23.19 18.36C23.4 18.63 23.74 18.95 23.95 19.13C23.85 19.24 23.8 19.35 23.8 19.47C23.81 19.58 23.85 19.67 23.91 19.74ZM20.77 21.18C20.86 21.26 20.96 21.34 21.05 21.42C19.28 21.89 17.96 21.94 17.67 21.94C15.83 20.82 14.88 19.64 14.51 19.1C16.05 19.07 17.32 18.93 18.38 18.74C18.42 18.79 18.47 18.84 18.51 18.89C17.66 19.03 16.8 19.11 15.94 19.15L15.59 19.16L15.78 19.46C15.78 19.46 15.74 19.53 15.48 19.58L15.06 19.67L17.14 21.35L17.24 21.33C17.24 21.33 17.42 21.28 17.65 21.28C17.97 21.28 18.19 21.38 18.3 21.57L18.37 21.69L18.5 21.66C19.27 21.52 20.02 21.36 20.77 21.18ZM14.61 19.89L14.11 19.87C14.09 19.62 14.06 19.37 14.05 19.12C14.13 19.26 14.31 19.54 14.61 19.89ZM13.99 18.29C13.96 17.7 13.95 17.11 13.94 16.52C14.01 16.53 14.08 16.53 14.15 16.54C14.92 16.66 15.12 17.52 14.52 18C14.36 18.13 14.18 18.22 13.99 18.29ZM18.56 21.24C18.36 21 18.05 20.88 17.65 20.88C17.48 20.88 17.33 20.9 17.24 20.92L15.93 19.85C16.04 19.79 16.11 19.71 16.15 19.62C16.16 19.59 16.17 19.57 16.17 19.54C17.21 19.48 18.09 19.38 18.83 19.25C19.18 19.65 19.71 20.21 20.41 20.85C19.55 21.05 18.84 21.19 18.56 21.24ZM13.34 16.54C13.35 17.17 13.37 17.81 13.4 18.44C13.34 18.45 13.29 18.46 13.23 18.47C13.04 18.49 12.86 18.47 12.69 18.43C12.67 17.82 12.66 17.2 12.64 16.59C12.87 16.58 13.11 16.56 13.34 16.54ZM12.61 15.98C12.58 15.5 12.53 15.02 12.47 14.55C12.76 14.51 13.06 14.52 13.34 14.59C13.34 15.04 13.34 15.49 13.34 15.93C13.15 15.94 12.96 15.96 12.8 15.98C12.74 15.98 12.67 15.98 12.61 15.98ZM12.01 15.91C11.97 15.9 11.93 15.89 11.89 15.88C11.72 15.82 11.56 15.72 11.43 15.59C11.06 15.24 11.57 14.89 11.89 14.73C11.94 15.12 11.98 15.52 12.01 15.91ZM16.83 24.42C14.94 23.45 13.92 22.38 13.51 21.88C13.8 21.85 14.08 21.83 14.35 21.8L17.46 23.82L24.29 21.95C20.77 24.07 17.29 24.39 16.83 24.42ZM22.47 20.97C22.42 20.92 22.35 20.85 22.27 20.77C23.05 20.53 23.8 20.26 24.36 19.96L24.7 19.78L24.36 19.6C24.28 19.56 24.2 19.49 24.2 19.46C24.2 19.45 24.23 19.4 24.37 19.32L24.62 19.17L24.39 18.99C24.39 18.98 23.69 18.4 23.44 18.02L23.36 17.9L23.22 17.94C23.22 17.94 23.1 17.98 22.94 17.98C22.7 17.98 22.52 17.9 22.41 17.74L22.28 17.57L22.12 17.71C22.11 17.72 21.61 18.13 20.28 18.51C20.24 18.45 20.2 18.38 20.16 18.32C21.77 17.83 22.59 17.24 22.95 16.91C23.52 18.15 24.89 19.15 25.48 19.54C24.53 20.12 23.52 20.6 22.47 20.97Z" fill="#A0A0A0" fill-opacity="1.000000" fill-rule="nonzero"/>
</svg>
