<svg width="24.000000" height="21.988281" viewBox="0 0 24 21.9883" fill="none" xmlns="http://www.w3.org/2000/svg" xmlns:xlink="http://www.w3.org/1999/xlink">
	<desc>
			Created with Pixso.
	</desc>
	<defs/>
	<path id="Vector" d="M23.83 8.22L22.24 7.03L13.76 0.58C12.74 -0.2 11.25 -0.2 10.23 0.58L1.75 7.03L0.16 8.22C-0.02 8.35 -0.06 8.6 0.08 8.78C0.15 8.88 0.27 8.94 0.4 8.94C0.48 8.94 0.56 8.91 0.64 8.86L1.6 8.14L1.6 9.43C1.51 9.47 1.43 9.53 1.36 9.6L1.15 9.78C0.78 9.98 0.5 10.36 0.42 10.8C0.38 11.04 0.39 11.29 0.46 11.53C0.5 11.66 0.47 11.82 0.38 11.96C-0.04 12.58 -0.12 13.44 0.17 14.11C0.21 14.21 0.27 14.3 0.33 14.39C0.43 14.51 0.46 14.68 0.42 14.83C0.4 14.91 0.39 15 0.38 15.08C0.35 15.44 0.42 15.79 0.48 16.07C0.54 16.36 0.64 16.81 0.97 17.09C1.14 17.24 1.36 17.32 1.6 17.33L1.6 18.54L0.53 18.54C0.38 18.54 0.24 18.6 0.14 18.72C0.04 18.83 0 18.99 0.02 19.14L0.45 21.98L2.73 21.98L3.54 21.98L4.79 21.98L19.6 21.98L21.26 21.98C21.88 21.98 22.39 21.47 22.39 20.84L22.39 8.14L23.35 8.86C23.43 8.91 23.51 8.94 23.59 8.94C23.72 8.94 23.84 8.88 23.91 8.78C24.05 8.6 24.01 8.35 23.83 8.22ZM5.6 21.18L5.6 19.98L18.79 19.98L18.79 21.18L5.6 21.18ZM18.79 15.98L18.79 17.18L5.6 17.18L5.6 15.98L18.79 15.98ZM18.79 13.18L5.6 13.18L5.6 11.98L18.79 11.98L18.79 13.18ZM21.26 21.18L19.6 21.18L19.6 9.18L4.79 9.18L4.79 21.18L3.66 21.18L3.97 19.13C3.99 18.98 3.95 18.83 3.85 18.72C3.75 18.6 3.61 18.54 3.46 18.54L2.39 18.54L2.39 17.16C2.42 17.15 2.44 17.13 2.46 17.12C3.11 16.79 3.56 16.28 3.74 15.68C3.86 15.28 3.84 14.8 3.67 14.41C3.6 14.27 3.59 14.11 3.63 13.99C3.64 13.95 3.66 13.91 3.68 13.87C3.82 13.69 3.94 13.46 4.04 13.2C4.19 12.82 4.25 12.48 4.22 12.17C4.22 12.11 4.22 12.06 4.21 12C4.16 11.79 4.07 11.6 3.94 11.44C3.87 11.35 3.83 11.21 3.86 11.09C3.93 10.77 3.88 10.42 3.74 10.13C3.5 9.68 3.03 9.37 2.48 9.29C2.46 9.29 2.43 9.28 2.41 9.28L11.26 2.55C11.69 2.23 12.29 2.22 12.73 2.55L21.6 9.29L21.6 20.85C21.6 21.03 21.44 21.18 21.26 21.18Z" fill="#A0A0A0" fill-opacity="1.000000" fill-rule="nonzero"/>
</svg>
