<svg width="22.153809" height="22.153809" viewBox="0 0 22.1538 22.1538" fill="none" xmlns="http://www.w3.org/2000/svg" xmlns:xlink="http://www.w3.org/1999/xlink">
	<desc>
			Created with Pixso.
	</desc>
	<defs/>
	<path id="Vector" d="M11.07 0C12.46 0 13.58 1.51 14.81 2.04C16.03 2.56 17.95 2.27 18.89 3.26C19.82 4.25 19.58 6.06 20.11 7.34C20.64 8.62 22.15 9.69 22.15 11.07C22.15 12.46 20.63 13.58 20.11 14.81C19.59 16.03 19.87 17.95 18.89 18.89C17.9 19.82 16.08 19.59 14.81 20.11C13.53 20.63 12.46 22.15 11.07 22.15C9.69 22.15 8.57 20.63 7.34 20.11C6.11 19.59 4.19 19.87 3.26 18.89C2.33 17.9 2.55 16.08 2.04 14.81C1.52 13.53 0 12.46 0 11.07C0 9.69 1.51 8.57 2.04 7.34C2.56 6.11 2.27 4.19 3.26 3.26C4.25 2.33 6.06 2.55 7.34 2.04C8.62 1.52 9.69 0 11.07 0ZM11.07 3.49C9.57 3.49 8.11 3.94 6.86 4.77C5.62 5.6 4.64 6.79 4.07 8.17C3.5 9.56 3.35 11.08 3.64 12.55C3.93 14.02 4.65 15.37 5.71 16.43C6.77 17.49 8.12 18.21 9.59 18.5C11.06 18.8 12.59 18.65 13.97 18.07C15.36 17.5 16.54 16.53 17.37 15.28C18.21 14.04 18.65 12.57 18.65 11.07C18.64 9.06 17.84 7.14 16.42 5.72C15 4.3 13.08 3.5 11.07 3.49ZM14.59 7.72L15.33 8.42C15.41 8.52 15.45 8.64 15.45 8.77C15.45 8.89 15.41 9.01 15.33 9.12L10.65 14.33C10.55 14.44 10.44 14.52 10.31 14.58C10.18 14.64 10.04 14.66 9.9 14.66C9.77 14.66 9.63 14.63 9.5 14.57C9.37 14.52 9.26 14.44 9.16 14.33L6.63 11.81C6.58 11.77 6.54 11.72 6.52 11.67C6.49 11.61 6.47 11.55 6.47 11.49C6.46 11.43 6.47 11.37 6.49 11.31C6.51 11.25 6.54 11.2 6.58 11.16L6.63 11.1L7.38 10.41C7.47 10.31 7.6 10.25 7.73 10.25C7.86 10.24 7.99 10.29 8.09 10.37L8.12 10.41L9.92 12.25L13.88 7.73C13.98 7.64 14.1 7.58 14.23 7.58C14.36 7.58 14.49 7.63 14.59 7.72Z" fill="#A0A0A0" fill-opacity="1.000000" fill-rule="nonzero"/>
</svg>
