<svg width="19.325684" height="23.211426" viewBox="0 0 19.3257 23.2114" fill="none" xmlns="http://www.w3.org/2000/svg" xmlns:xlink="http://www.w3.org/1999/xlink">
	<desc>
			Created with Pixso.
	</desc>
	<defs/>
	<path id="Vector" d="M5.98 13.72C6.53 13.72 7.13 13.78 7.68 13.88L7.68 12.23L11.68 12.23L11.68 15.17C12.15 15.34 12.49 15.53 12.81 15.76C13.42 16.21 13.76 16.79 13.78 17.43C14.56 17.24 15.27 16.93 15.89 16.51C16.11 16.35 16.38 16.22 16.54 16.1L16.54 11.54L9.66 3.85L2.66 11.59L2.66 14.35C3.13 14.23 3.56 14.1 4.06 13.97C4.64 13.81 5.3 13.72 5.98 13.72Z" fill="#A0A0A0" fill-opacity="1.000000" fill-rule="nonzero"/>
	<path id="Vector" d="M9.69 1.98L17.46 10.67L19.24 10.67L9.67 0L5.72 4.35L5.72 2.59L2.82 2.59L2.82 7.56L0.03 10.67L1.83 10.67L9.69 1.98Z" fill="#A0A0A0" fill-opacity="1.000000" fill-rule="nonzero"/>
	<path id="Vector" d="M18.36 16.84C17.93 16.84 17.35 17.03 16.61 17.54C15.27 18.47 13.62 18.87 12.11 18.87C10.89 18.87 9.76 18.61 8.96 18.13C8.56 17.89 8.56 17.81 8.79 17.81C9.25 17.81 10.64 18.13 11.57 18.13C12.03 18.13 12.39 18.05 12.47 17.82C12.85 16.75 11.37 16.41 9.82 15.78C8.69 15.32 7.31 14.98 5.99 14.98C5.45 14.98 4.9 15.04 4.4 15.18C2.12 15.8 0.47 16.27 0 16.42L0 22.42C0.94 22.07 2.03 21.74 2.65 21.74C3.78 21.74 8.39 23.21 11 23.21C11.36 23.21 11.69 23.18 11.96 23.11C14.17 22.58 18.01 19.45 19.06 18.38C19.56 17.87 19.36 16.84 18.36 16.84Z" fill="#A0A0A0" fill-opacity="1.000000" fill-rule="nonzero"/>
</svg>
