<svg width="19.725098" height="23.456055" viewBox="0 0 19.7251 23.4561" fill="none" xmlns="http://www.w3.org/2000/svg" xmlns:xlink="http://www.w3.org/1999/xlink">
	<desc>
			Created with Pixso.
	</desc>
	<defs/>
	<path id="Vector" d="M2.66 5.45L8 5.45L8 11.85L2.66 11.85L2.66 5.45ZM10.12 5.45L14.39 5.45L14.39 6.52L10.12 6.52L10.12 5.45ZM10.12 10.79L14.39 10.79L14.39 11.86L10.12 11.86L10.12 10.79ZM10.12 8.11L14.39 8.11L14.39 9.18L10.12 9.18L10.12 8.11ZM2.66 13.5L14.38 13.5L14.38 14.56L2.66 14.56L2.66 13.5ZM2.66 18.71L14.38 18.71L14.38 19.78L2.66 19.78L2.66 18.71ZM2.66 16.03L14.38 16.03L14.38 17.1L2.66 17.1L2.66 16.03ZM2.36 0L2.36 2.04L0 2.04L0 23.45L17.36 23.45L17.36 21.41L19.72 21.41L19.72 0L2.36 0ZM16.29 22.4L1.04 22.4L1.04 3.09L2.36 3.09L3.43 3.09L16.29 3.09L16.29 20.32L16.29 21.39L16.29 22.4ZM18.67 20.34L17.36 20.34L17.36 2.02L3.43 2.02L3.43 1.06L18.67 1.06L18.67 20.34Z" fill="#A0A0A0" fill-opacity="1.000000" fill-rule="nonzero"/>
</svg>
