<svg width="16.000000" height="16.000000" viewBox="0 0 16 16" fill="none" xmlns="http://www.w3.org/2000/svg" xmlns:xlink="http://www.w3.org/1999/xlink">
	<desc>
			Created with Pixso.
	</desc>
	<defs>
		<clipPath id="clip39_2350">
			<rect id="ruler-square-svgrepo-com 1" rx="0.000000" width="15.000000" height="15.000000" transform="translate(0.500000 0.500000)" fill="white" fill-opacity="0"/>
		</clipPath>
	</defs>
	<rect id="ruler-square-svgrepo-com 1" rx="0.000000" width="15.000000" height="15.000000" transform="translate(0.500000 0.500000)" fill="#FFFFFF" fill-opacity="0"/>
	<g clip-path="url(#clip39_2350)">
		<path id="Vector" d="M0.53 0C0.23 0 0 0.23 0 0.53L0 15.46C0 15.76 0.23 16 0.53 16L4.79 16C5.09 16 5.33 15.76 5.33 15.46L5.33 5.33L15.46 5.33C15.76 5.33 16 5.09 16 4.79L16 0.53C16 0.23 15.76 0 15.46 0L0.53 0ZM1.06 4.34L1.06 1.06L4.34 1.06L4.34 4.34L1.06 4.34ZM1.06 5.25L1.06 14.93L4.26 14.93L4.26 13.78L2.93 13.78C2.68 13.78 2.48 13.58 2.48 13.33C2.48 13.08 2.68 12.87 2.93 12.87L4.26 12.87L4.26 11.65L2.4 11.65C2.14 11.65 1.94 11.45 1.94 11.2C1.94 10.94 2.14 10.74 2.4 10.74L4.26 10.74L4.26 9.52L2.93 9.52C2.68 9.52 2.48 9.31 2.48 9.06C2.48 8.81 2.68 8.61 2.93 8.61L4.26 8.61L4.26 7.38L2.93 7.38C2.68 7.38 2.48 7.18 2.48 6.93C2.48 6.68 2.68 6.47 2.93 6.47L4.26 6.47L4.26 5.25L1.06 5.25ZM5.25 4.26L6.48 4.26L6.48 2.93C6.48 2.68 6.68 2.47 6.93 2.47C7.18 2.47 7.38 2.68 7.38 2.93L7.38 4.26L8.61 4.26L8.61 2.93C8.61 2.68 8.81 2.47 9.06 2.47C9.31 2.47 9.52 2.68 9.52 2.93L9.52 4.26L10.74 4.26L10.74 2.39C10.74 2.14 10.94 1.94 11.2 1.94C11.45 1.94 11.65 2.14 11.65 2.39L11.65 4.26L12.87 4.26L12.87 2.93C12.87 2.68 13.08 2.47 13.33 2.47C13.58 2.47 13.78 2.68 13.78 2.93L13.78 4.26L14.93 4.26L14.93 1.06L5.25 1.06L5.25 4.26Z" fill="#2D323A" fill-opacity="1.000000" fill-rule="evenodd"/>
	</g>
</svg>
