<svg width="23.464355" height="21.124023" viewBox="0 0 23.4644 21.124" fill="none" xmlns="http://www.w3.org/2000/svg" xmlns:xlink="http://www.w3.org/1999/xlink">
	<desc>
			Created with Pixso.
	</desc>
	<defs/>
	<path id="Vector" d="M0 10.48C0 10.96 0.38 11.26 0.85 11.26C1.14 11.26 1.37 11.11 1.57 10.91L11.38 1.98C11.49 1.87 11.61 1.83 11.74 1.83C11.86 1.83 11.97 1.87 12.09 1.98L21.88 10.91C22.09 11.11 22.32 11.26 22.61 11.26C23.08 11.26 23.46 10.96 23.46 10.48C23.46 10.18 23.35 9.99 23.16 9.82L19.68 6.65L19.68 0.72C19.68 0.28 19.4 0 18.96 0L17.64 0C17.21 0 16.91 0.28 16.91 0.72L16.91 4.13L12.93 0.5C12.58 0.17 12.15 0.01 11.73 0.01C11.31 0.01 10.88 0.17 10.52 0.5L0.3 9.82C0.12 9.99 0 10.18 0 10.48ZM2.87 18.91C2.87 20.31 3.71 21.12 5.13 21.12L9.2 21.12L9.2 13.98C9.2 13.52 9.51 13.21 9.97 13.21L13.52 13.21C13.98 13.21 14.28 13.52 14.28 13.98L14.28 21.12L18.34 21.12C19.75 21.12 20.59 20.31 20.59 18.91L20.59 11.56L12.06 3.87C11.95 3.77 11.83 3.72 11.71 3.72C11.6 3.72 11.49 3.77 11.37 3.88L2.87 11.61L2.87 18.91Z" fill="#A0A0A0" fill-opacity="1.000000" fill-rule="nonzero"/>
</svg>
