<svg width="24.018555" height="23.306152" viewBox="0 0 24.0186 23.3062" fill="none" xmlns="http://www.w3.org/2000/svg" xmlns:xlink="http://www.w3.org/1999/xlink">
	<desc>
			Created with Pixso.
	</desc>
	<defs/>
	<path id="Vector" d="M23.17 21.82L23.17 12.86L15.76 12.86L15.76 11.39L15.24 11.39L15.24 10.03L14.81 10.03L14.81 8L15.29 8L15.29 7.03L14.81 7.03L14.81 6.6C14.81 5.04 13.76 3.73 12.39 3.48L12.39 1.93L12.14 1.93L12.14 0L11.64 0L11.64 1.95L11.39 1.95L11.39 3.5C10.01 3.75 8.98 5.06 8.98 6.61L8.98 7.04L8.49 7.04L8.49 8.02L8.98 8.02L8.98 10.04L8.54 10.04L8.54 11.39L8.02 11.39L8.02 12.86L0.84 12.86L0.84 21.84L0 21.84L0 23.3L24.01 23.3L24.01 21.84L23.17 21.82ZM14.06 8L14.06 10.03L13.57 10.03L13.57 8L14.06 8ZM13.1 8L13.1 10.03L12.61 10.03L12.61 8L13.1 8ZM12.13 8L12.13 10.03L11.64 10.03L11.64 8L12.13 8ZM11.15 8L11.15 10.03L10.66 10.03L10.66 8L11.15 8ZM9.69 8L10.18 8L10.18 10.03L9.69 10.03L9.69 8ZM3.99 21.82L2.77 21.82L2.77 17.23L3.99 17.23L3.99 21.82ZM3.99 16.25L2.77 16.25L2.77 14.3L3.99 14.3L3.99 16.25ZM6.18 21.82L4.96 21.82L4.96 17.23L6.18 17.23L6.18 21.82ZM6.18 16.25L4.96 16.25L4.96 14.3L6.18 14.3L6.18 16.25ZM8.11 21.82L6.89 21.82L6.89 17.23L8.11 17.23L8.11 21.82ZM8.11 16.25L6.89 16.25L6.89 14.3L8.11 14.3L8.11 16.25ZM10.31 21.82L9.09 21.82L9.09 17.23L10.31 17.23L10.31 21.82ZM10.31 16.25L9.09 16.25L9.09 14.3L10.31 14.3L10.31 16.25ZM12.48 21.82L11.26 21.82L11.26 17.23L12.48 17.23L12.48 21.82ZM12.48 16.25L11.26 16.25L11.26 14.3L12.48 14.3L12.48 16.25ZM14.68 21.82L13.46 21.82L13.46 17.23L14.68 17.23L14.68 21.82ZM14.68 16.25L13.46 16.25L13.46 14.3L14.68 14.3L14.68 16.25ZM16.85 21.82L15.63 21.82L15.63 17.23L16.85 17.23L16.85 21.82ZM16.85 16.25L15.63 16.25L15.63 14.3L16.85 14.3L16.85 16.25ZM19.04 21.82L17.83 21.82L17.83 17.23L19.04 17.23L19.04 21.82ZM19.04 16.25L17.83 16.25L17.83 14.3L19.04 14.3L19.04 16.25ZM21.22 21.82L20 21.82L20 17.23L21.22 17.23L21.22 21.82ZM21.22 16.25L20 16.25L20 14.3L21.22 14.3L21.22 16.25Z" fill="#A0A0A0" fill-opacity="1.000000" fill-rule="nonzero"/>
</svg>
