<svg viewBox="0 0 80 80" xmlns="http://www.w3.org/2000/svg" xmlns:xlink="http://www.w3.org/1999/xlink" width="80.000000" height="80.000000" fill="none" customFrame="#000000">
	<path id="Union" d="M1.48649 0C0.665523 0 0 0.665523 0 1.48649L0 57.7793C0 58.6002 0.665523 59.2657 1.48649 59.2657L35.9741 59.2657L35.9741 57.9869C36.0846 70.1634 45.8976 80 57.9866 80C70.1442 80 80 70.0514 80 57.7791C80 45.5301 70.1815 35.596 58.0556 35.5584L60.2078 35.5584L60.2078 1.48649C60.2078 0.665523 59.5423 0 58.7213 0L1.48649 0ZM57.9176 35.5584L57.2348 35.5584L57.2348 2.97297L40.3954 2.97297L40.3954 16.3004C40.3954 16.8337 40.1097 17.3262 39.6467 17.5909C39.1836 17.8556 38.6143 17.8519 38.1547 17.5813L30.0743 12.8233L21.2743 17.6064C20.8137 17.8567 20.2553 17.846 19.8047 17.578C19.3541 17.3101 19.078 16.8246 19.078 16.3004L19.078 2.97297L2.97297 2.97297L2.97297 56.2928L35.9741 56.2928L35.9741 57.5714C36.0844 45.418 45.8603 35.5958 57.9176 35.5584ZM22.0509 13.8005L22.0509 2.97297L37.4225 2.97297L37.4225 13.7L30.8578 9.83458C30.408 9.56974 29.8523 9.56021 29.3937 9.80947L22.0509 13.8005ZM10.2914 31.1091C9.47041 31.1091 8.80489 31.7746 8.80489 32.5956C8.80489 33.4166 9.47041 34.0821 10.2914 34.0821L26.4355 34.0821C27.2565 34.0821 27.922 33.4166 27.922 32.5956C27.922 31.7746 27.2565 31.1091 26.4355 31.1091L10.2914 31.1091ZM67.0323 54.4592C67.6531 53.922 67.7209 52.9832 67.1838 52.3624C66.6466 51.7416 65.7079 51.6737 65.087 52.2109L56.0244 60.0521L52.5764 55.4115C52.0867 54.7525 51.1556 54.6152 50.4966 55.1048C49.8377 55.5944 49.7004 56.5255 50.19 57.1845L54.5929 63.1105C54.8395 63.4423 55.2131 63.6565 55.624 63.7015C56.0349 63.7466 56.4461 63.6185 56.7587 63.348L67.0323 54.4592ZM8.80489 44.4467C8.80489 43.6257 9.47041 42.9602 10.2914 42.9602L22.0326 42.9602C22.8535 42.9602 23.519 43.6257 23.519 44.4467C23.519 45.2676 22.8535 45.9332 22.0326 45.9332L10.2914 45.9332C9.47041 45.9332 8.80489 45.2676 8.80489 44.4467ZM77.0649 57.7791C77.0649 68.4151 68.5232 77.0372 57.9866 77.0372C47.4499 77.0372 38.9083 68.4151 38.9083 57.7791C38.9083 47.1432 47.4499 38.5211 57.9866 38.5211C68.5232 38.5211 77.0649 47.1432 77.0649 57.7791Z" fill="rgb(197,53,140)" fill-rule="evenodd" />
</svg>
