<svg width="30.000000" height="30.000000" viewBox="0 0 30 30" fill="none" xmlns="http://www.w3.org/2000/svg" xmlns:xlink="http://www.w3.org/1999/xlink">
	<defs/>
	<path id="Combined-Shape" d="M0 15C0 6.71582 6.71582 0 15 0C23.2842 0 30 6.71582 30 15C30 23.2842 23.2842 30 15 30C6.71582 30 0 23.2842 0 15ZM14.9902 15.2412C17.2021 15.2412 19 13.5049 19 11.3711C19 9.23633 17.2021 7.5 14.9902 7.5C12.7783 7.5 10.9795 9.23633 10.9795 11.3711C10.9795 13.5049 12.7783 15.2412 14.9902 15.2412ZM18.9512 17.4697C18.2256 17.9092 17.4385 18.2207 16.6221 18.4004L18.8643 20.5645C19.3232 21.0068 19.3232 21.7246 18.8643 22.168C18.4053 22.6104 17.6621 22.6104 17.2031 22.168L15 20.041L12.7979 22.168C12.5684 22.3887 12.2666 22.5 11.9658 22.5C11.666 22.5 11.3652 22.3887 11.1357 22.168C10.6768 21.7246 10.6768 21.0068 11.1357 20.5645L13.377 18.4004C12.5605 18.2207 11.7734 17.9082 11.0488 17.4697C10.5 17.1357 10.335 16.4355 10.6807 15.9053C11.0254 15.375 11.751 15.2148 12.3008 15.5488C13.9424 16.5459 16.0566 16.5459 17.6992 15.5488C18.249 15.2148 18.9736 15.375 19.3193 15.9053C19.665 16.4355 19.5 17.1357 18.9512 17.4697Z" clip-rule="evenodd" fill="#FFFFFF" fill-opacity="1.000000" fill-rule="evenodd"/>
</svg>
