<svg width="30.000000" height="30.000000" viewBox="0 0 30 30" fill="none" xmlns="http://www.w3.org/2000/svg" xmlns:xlink="http://www.w3.org/1999/xlink">
		<clipPath id="clip39_2647">
			<rect id="telega 1" rx="0.000000" width="29.000000" height="29.000000" transform="translate(0.500000 0.500000)" fill="white" fill-opacity="0"/>
		</clipPath>
	</defs>
	<rect id="telega 1" rx="0.000000" width="29.000000" height="29.000000" transform="translate(0.500000 0.500000)" fill="#FFFFFF" fill-opacity="0"/>
	<g clip-path="url(#clip39_2647)">
		<path id="Vector" d="M25.6 4.39C31.46 10.25 31.46 19.74 25.6 25.6C19.75 31.46 10.25 31.46 4.39 25.6C-1.47 19.74 -1.47 10.25 4.39 4.39C10.25 -1.47 19.75 -1.47 25.6 4.39Z" fill="#FFFFFF" fill-opacity="1.000000" fill-rule="evenodd"/>
		<path id="Vector" d="M6.07 14.62C10.2 12.89 15.19 10.43 19.52 8.77C23.51 7.3 23.44 7.7 22.84 11.7C22.38 14.89 21.84 18.08 21.31 21.28C21.11 22.81 20.31 23.61 18.65 22.68L13.46 19.02C12.72 18.42 12.92 17.95 13.52 17.35L18.31 12.83C19.58 11.56 18.98 11.1 17.51 12.09L10.93 16.55C10 17.22 9 17.22 7.93 16.89L5.67 16.09C4.21 15.55 5.34 14.95 6.07 14.62L6.07 14.62Z" fill="#1F252D" fill-opacity="1.000000" fill-rule="evenodd"/>
	</g>
</svg>
