<svg width="30.000000" height="30.000000" viewBox="0 0 30 30" fill="none" xmlns="http://www.w3.org/2000/svg" xmlns:xlink="http://www.w3.org/1999/xlink">
	<defs/>
	<path id="Combined-Shape" d="M15 0C6.71582 0 0 6.71582 0 15C0 23.2842 6.71582 30 15 30C23.2842 30 30 23.2842 30 15C30 6.71582 23.2842 0 15 0ZM16.2217 19.7354C16.0732 19.8906 15.7842 19.9229 15.7842 19.9229L14.8281 19.9229C14.8281 19.9229 12.7188 20.0469 10.8604 18.1484C8.83301 16.0762 7.04395 11.9658 7.04395 11.9658C7.04395 11.9658 6.94043 11.6963 7.05176 11.5664C7.17773 11.4199 7.52148 11.4102 7.52148 11.4102L9.80762 11.3955C9.80762 11.3955 10.0225 11.4307 10.1768 11.542C10.3047 11.6338 10.376 11.8057 10.376 11.8057C10.376 11.8057 10.7451 12.7227 11.2344 13.5518C12.1895 15.1719 12.6338 15.5264 12.958 15.3525C13.4307 15.0996 13.2891 13.0625 13.2891 13.0625C13.2891 13.0625 13.2979 12.3242 13.0508 11.9941C12.8604 11.7393 12.5 11.665 12.3418 11.6445C12.2119 11.627 12.4238 11.334 12.6973 11.2021C13.1094 11.0049 13.835 10.9932 14.6934 11.002C15.3633 11.0088 15.5557 11.0498 15.8164 11.1113C16.4238 11.2559 16.4043 11.7158 16.3633 12.71C16.3516 13.0068 16.3369 13.3516 16.3369 13.75C16.3369 13.8398 16.335 13.9355 16.332 14.0332C16.3174 14.543 16.3018 15.126 16.6436 15.3428C16.8184 15.4531 17.2461 15.3594 18.3174 13.5732C18.8262 12.7275 19.2061 11.7324 19.2061 11.7324C19.2061 11.7324 19.29 11.5547 19.4189 11.4785C19.5508 11.4014 19.7295 11.4248 19.7295 11.4248L22.1348 11.4102C22.1348 11.4102 22.8584 11.3252 22.9746 11.6465C23.0977 11.9824 22.7051 12.7676 21.7217 14.0527C20.79 15.2734 20.3359 15.7227 20.3779 16.1201C20.4082 16.4102 20.7031 16.6729 21.2686 17.1875C22.5479 18.3535 22.8135 18.9219 22.8574 18.9922C23.3877 19.8545 22.2695 19.9229 22.2695 19.9229L20.1328 19.9521C20.1328 19.9521 19.6738 20.041 19.0703 19.6338C18.7529 19.4209 18.4443 19.0723 18.1494 18.7412C17.7002 18.2354 17.2842 17.7676 16.9297 17.8779C16.334 18.0635 16.3516 19.3223 16.3516 19.3223C16.3516 19.3223 16.3564 19.5918 16.2217 19.7354Z" clip-rule="evenodd" fill="#FFFFFF" fill-opacity="1.000000" fill-rule="evenodd"/>
</svg>
