<svg width="30.000000" height="30.000000" viewBox="0 0 30 30" fill="none" xmlns="http://www.w3.org/2000/svg" xmlns:xlink="http://www.w3.org/1999/xlink">
	<defs/>
	<path id="Combined-Shape" d="M0 15C0 23.2842 6.71582 30 15 30C23.2842 30 30 23.2842 30 15C30 6.71582 23.2842 0 15 0C6.71582 0 0 6.71582 0 15ZM24.4141 14.4258C24.4121 19.3428 20.4121 23.3438 15.4941 23.3457L15.4912 23.3457C13.998 23.3447 12.5312 22.9707 11.2285 22.2598L6.5 23.5L7.76562 18.8779C6.98438 17.5254 6.57422 15.9912 6.5752 14.4189C6.57715 9.50098 10.5781 5.5 15.4941 5.5C17.8809 5.50098 20.1201 6.42969 21.8037 8.11621C23.4883 9.80176 24.415 12.043 24.4141 14.4258Z" clip-rule="evenodd" fill="#FFFFFF" fill-opacity="1.000000" fill-rule="evenodd"/>
	<path id="Combined-Shape" d="M11.4473 20.6445L8.6416 21.3799L9.39062 18.6445L9.21484 18.3643C8.47266 17.1836 8.08008 15.8193 8.08105 14.4189C8.08301 10.3311 11.4082 7.00586 15.498 7.00586C17.4775 7.00684 19.3389 7.77832 20.7393 9.17969C22.1387 10.5811 22.9092 12.4434 22.9082 14.4248C22.9062 18.5127 19.5811 21.8379 15.4951 21.8379L15.4922 21.8379C14.1611 21.8379 12.8564 21.4805 11.7188 20.8047L11.4473 20.6445ZM19.5615 16.2861C19.7842 16.3975 19.9326 16.4531 19.9883 16.5459C20.0439 16.6396 20.0439 17.085 19.8584 17.6064C19.6729 18.127 18.7822 18.6016 18.3535 18.666C17.9697 18.7236 17.4844 18.7471 16.9502 18.5771C16.627 18.4746 16.2119 18.3379 15.6797 18.1084C13.4443 17.1426 11.9844 14.8916 11.8721 14.7432C11.7607 14.5938 10.9629 13.5342 10.9629 12.4375C10.9629 11.3408 11.5381 10.8008 11.7422 10.5781C11.9473 10.3545 12.1885 10.2988 12.3369 10.2988C12.4854 10.2988 12.6338 10.3008 12.7637 10.3066C12.7803 10.3076 12.7969 10.3076 12.8135 10.3076C12.9434 10.3066 13.1055 10.3057 13.2656 10.6895C13.4512 11.1357 13.8965 12.2324 13.9521 12.3447C14.0078 12.4561 14.0459 12.5859 13.9707 12.7354C13.8965 12.8838 13.8594 12.9766 13.748 13.1064C13.6367 13.2363 13.5146 13.3975 13.4141 13.4971C13.3027 13.6084 13.1865 13.7285 13.3164 13.9521C13.4463 14.1748 13.8936 14.9053 14.5557 15.4961C15.4072 16.2549 16.126 16.4902 16.3486 16.6025C16.5713 16.7139 16.7012 16.6953 16.8311 16.5459C16.9609 16.3975 17.3887 15.8955 17.5371 15.6729C17.6855 15.4492 17.834 15.4863 18.0381 15.5605C18.2422 15.6357 19.3379 16.1748 19.5615 16.2861Z" clip-rule="evenodd" fill="#FFFFFF" fill-opacity="1.000000" fill-rule="evenodd"/>
</svg>
