<svg width="30.000000" height="30.000000" viewBox="0 0 30 30" fill="none" xmlns="http://www.w3.org/2000/svg" xmlns:xlink="http://www.w3.org/1999/xlink">
	<defs>
		<clipPath id="clip39_2641">
			<rect id="youtube 1" rx="0.000000" width="29.000000" height="29.000000" transform="translate(0.500000 0.500000)" fill="white" fill-opacity="0"/>
		</clipPath>
	</defs>
	<rect id="youtube 1" rx="0.000000" width="29.000000" height="29.000000" transform="translate(0.500000 0.500000)" fill="#FFFFFF" fill-opacity="0"/>
	<g clip-path="url(#clip39_2641)">
		<path id="Vector" d="M25.6 4.39C31.46 10.25 31.46 19.74 25.6 25.6C19.75 31.46 10.25 31.46 4.39 25.6C-1.47 19.74 -1.47 10.25 4.39 4.39C10.25 -1.47 19.75 -1.47 25.6 4.39Z" fill="#FFFFFF" fill-opacity="1.000000" fill-rule="evenodd"/>
		<path id="Vector" d="M9.49 8.65C11.28 8.5 13.4 8.43 15.02 8.43C16.64 8.43 18.72 8.5 20.55 8.65C22.67 8.83 23.75 9.19 24.04 11.31C24.18 12.28 24.25 13.61 24.25 14.97C24.25 16.34 24.18 17.7 24.04 18.64C23.75 20.79 22.67 21.11 20.55 21.29C18.72 21.47 16.64 21.51 15.02 21.51C13.4 21.51 11.28 21.47 9.49 21.29C7.37 21.11 6.25 20.79 5.97 18.64C5.84 17.42 5.78 16.2 5.79 14.97C5.78 13.75 5.84 12.52 5.97 11.31C6.25 9.19 7.37 8.83 9.49 8.65Z" fill="#1F252D" fill-opacity="1.000000" fill-rule="evenodd"/>
		<path id="Vector" d="M13.15 12.21L17.96 14.97L13.15 17.77L13.15 12.21Z" fill="#FFFFFF" fill-opacity="1.000000" fill-rule="evenodd"/>
	</g>
</svg>
