<svg width="44" height="44" viewBox="0 0 44 44" fill="none" xmlns="http://www.w3.org/2000/svg">
<g clip-path="url(#clip0_388_3402)">
<path fill-rule="evenodd" clip-rule="evenodd" d="M7.58768 23.1698L37.3387 22.8428C37.8909 22.8367 38.3337 22.3841 38.3276 21.8318C38.3215 21.2796 37.8689 20.8368 37.3167 20.8429L7.42033 21.1715L19.0001 8.81932C19.3778 8.4164 19.3574 7.78357 18.9545 7.40584C18.5515 7.02812 17.9187 7.04855 17.541 7.45147L4.35852 21.5133C3.9808 21.9162 4.00123 22.549 4.40414 22.9268L19.1086 36.7117C19.5116 37.0894 20.1444 37.069 20.5221 36.6661C20.8998 36.2632 20.8794 35.6303 20.4765 35.2526L7.58768 23.1698Z" fill="#C5358C"/>
</g>
<defs>
<clipPath id="clip0_388_3402">
<rect width="30" height="30" fill="white" transform="matrix(-0.707107 -0.707107 -0.707107 0.707107 43.2134 22)"/>
</clipPath>
</defs>
</svg>
